<svg width="72" height="100" viewBox="0 0 72 100" fill="none" xmlns="http://www.w3.org/2000/svg">
<g clip-path="url(#clip0)">
<path d="M35.5422 99.7473L6.57826 91.7358L0.123779 19.6027H71.0474L64.5861 91.7245L35.5422 99.7473Z" fill="#264DE4"/>
<path d="M59.0546 87.132L64.5762 25.5006H35.5857V93.615L59.0546 87.132Z" fill="#2965F1"/>
<path d="M14.9205 52.2538L15.7163 61.1005H35.5856V52.2538H14.9205Z" fill="#EBEBEB"/>
<path d="M13.3215 34.3475L14.1287 43.1945H35.5856V34.3475H13.3215Z" fill="#EBEBEB"/>
<path d="M35.5856 75.2298L35.5467 75.2401L25.6582 72.5797L25.0261 65.5239H16.113L17.357 79.4147L35.5447 84.4455L35.5856 84.4342V75.2298Z" fill="#EBEBEB"/>
<path d="M21.3123 9.46168H27.0691V12.9425H17.3152V0.5H27.0691V3.98084H21.3123H20.8123V4.48084V8.96168V9.46168H21.3123Z" fill="#F9FAFB" stroke="#1C1C1C"/>
<path d="M34.2169 5.17566H39.9737V13.1373H30.2198V10.0461H35.9767H36.4767V9.54613V8.76686V8.26686H35.9767H30.2198V0.5H39.9737V3.39638H34.2169H33.7169V3.89638V4.67566V5.17566H34.2169Z" fill="#F9FAFB" stroke="#1C1C1C"/>
<path d="M47.1216 5.17566H52.8784V13.1373H43.1245V10.0461H48.8813H49.3813V9.54613V8.76686V8.26686H48.8813H43.1245V0.5H52.8784V3.39638H47.1216H46.6216V3.89638V4.67566V5.17566H47.1216Z" fill="#F9FAFB" stroke="#1C1C1C"/>
<path d="M56.1938 52.2537L57.7967 34.3475H35.5549V43.1945H48.0662L47.2583 52.2537H35.5549V61.1005H46.4883L45.4577 72.5742L35.5549 75.2373V84.4414L53.7572 79.4148L53.8907 77.9202L55.9772 54.6294L56.1938 52.2537Z" fill="white"/>
</g>
<defs>
<clipPath id="clip0">
<rect width="71.1712" height="100" fill="white"/>
</clipPath>
</defs>
</svg>
