<svg width="72" height="100" viewBox="0 0 72 100" fill="none" xmlns="http://www.w3.org/2000/svg">
<g clip-path="url(#clip0)">
<path d="M71.0474 19.6027L64.5861 91.7245L35.5422 99.7473L6.57826 91.7358L0.123779 19.6027H71.0474Z" fill="#E44D26"/>
<path d="M35.5856 93.615L59.0545 87.132L64.5761 25.5006H35.5856V93.615Z" fill="#F16529"/>
<path d="M23.0251 43.1945H35.5856V34.3475H13.3215L13.5341 36.721L15.7163 61.1005H35.5856V52.2537H23.8365L23.0251 43.1945Z" fill="#EBEBEB"/>
<path d="M25.0261 65.5239H16.113L17.357 79.4147L35.5447 84.4455L35.5856 84.4342V75.2298L35.5467 75.2401L25.6582 72.5797L25.0261 65.5239Z" fill="#EBEBEB"/>
<path d="M10.7349 8.94687V12.9511H7.22273V0.5H10.7347V4.44187V4.94187H11.2347H15.3622H15.8622V4.44187V0.5H19.3745V12.9511H15.8624V8.94687V8.44687H15.3624H11.2349H10.7349V8.94687Z" fill="#F9FAFB" stroke="#1C1C1C"/>
<path d="M25.8081 3.96058H22.3358V0.5H33.7947V3.96058H30.3206H29.8206V4.46058V12.9511H26.3083V4.46058V3.96058H25.8083H25.8081Z" fill="#F9FAFB" stroke="#1C1C1C"/>
<path d="M44.2977 4.98723L47.0427 0.5H50.9691V12.9511H47.4755V6.78399V5.09533L46.5561 6.51176L43.8322 10.7082L41.1064 6.51163L40.1871 5.09631V6.78399V12.9511H36.7721V0.5H40.6969L43.4448 4.98742L43.8714 5.68411L44.2977 4.98723Z" fill="#F9FAFB" stroke="#1C1C1C"/>
<path d="M58.2282 9.50492H64.0736V12.9511H54.2147V0.5H57.7282V9.00492V9.50492H58.2282Z" fill="#F9FAFB" stroke="#1C1C1C"/>
<path d="M35.5549 61.1005H46.4883L45.4577 72.5742L35.5549 75.2374V84.4414L53.7572 79.4149L53.8907 77.9202L55.9772 54.6294L56.1938 52.2538H35.5549V61.1005Z" fill="white"/>
<path d="M35.5549 43.1728V43.1945H57.0017L57.1798 41.2059L57.5844 36.721L57.7967 34.3475H35.5549V43.1728Z" fill="white"/>
</g>
<defs>
<clipPath id="clip0">
<rect width="71.1712" height="100" fill="white"/>
</clipPath>
</defs>
</svg>
