<svg width="95" height="95" viewBox="0 0 95 95" fill="none" xmlns="http://www.w3.org/2000/svg">
<circle cx="47.5" cy="47.5" r="47.5" fill="white"/>
<path d="M44.3891 0.0255648C44.1847 0.0441349 43.5347 0.10913 42.9497 0.155556C29.4565 1.3719 16.8177 8.65137 8.81281 19.8399C4.35533 26.0608 1.5044 33.1175 0.427175 40.5919C0.0464321 43.201 0 43.9717 0 47.5093C0 51.0469 0.0464321 51.8176 0.427175 54.4267C3.0088 72.2632 15.7033 87.2493 32.9203 92.8018C36.0034 93.7953 39.2537 94.4731 42.9497 94.8816C44.389 95.0395 50.611 95.0395 52.0503 94.8816C58.4301 94.1759 63.8348 92.5975 69.1652 89.877C69.9824 89.4591 70.1403 89.3477 70.0288 89.2549C69.9545 89.1992 66.4721 84.5288 62.2933 78.8835L54.697 68.6235L45.1784 54.5381C39.9409 46.7943 35.632 40.4619 35.5948 40.4619C35.5577 40.4527 35.5205 46.7108 35.502 54.3524C35.4741 67.7321 35.4648 68.2707 35.2977 68.5864C35.0562 69.0413 34.8705 69.227 34.4804 69.4313C34.1833 69.5799 33.9233 69.6077 32.521 69.6077H30.9145L30.4873 69.3384C30.2087 69.162 30.0044 68.9299 29.8651 68.6606L29.6701 68.2428L29.6887 49.6263L29.7165 31.0005L30.0044 30.6384C30.153 30.4434 30.4687 30.1927 30.6916 30.072C31.0723 29.8863 31.2209 29.8677 32.8275 29.8677C34.7219 29.8677 35.0376 29.942 35.5298 30.4805C35.6691 30.6291 40.8231 38.3914 46.9892 47.7414C53.1554 57.0915 61.5875 69.8584 65.7292 76.1258L73.2512 87.5186L73.632 87.2679C77.0029 85.0766 80.5689 81.9568 83.392 78.7071C89.4003 71.8083 93.2727 63.396 94.5728 54.4267C94.9536 51.8176 95 51.0469 95 47.5093C95 43.9717 94.9536 43.201 94.5728 40.5919C91.9912 22.7554 79.2967 7.76929 62.0797 2.21684C59.043 1.23262 55.8113 0.554813 52.1896 0.14627C51.2981 0.05342 45.1598 -0.0487155 44.3891 0.0255648ZM63.8348 28.7535C64.2805 28.9763 64.6427 29.4035 64.7727 29.8491C64.847 30.0906 64.8656 35.253 64.847 46.8872L64.8192 63.5817L61.8754 59.0692L58.9223 54.5567V42.4211C58.9223 34.5752 58.9594 30.1648 59.0152 29.9513C59.1637 29.4313 59.4888 29.0228 59.9345 28.7814C60.3153 28.5864 60.4545 28.5678 61.9125 28.5678C63.2869 28.5678 63.5284 28.5864 63.8348 28.7535Z" fill="black"/>
</svg>
